# xmcd
#
# Track frame offsets:
#	150
#	14298
#	30490
#	48972
#	70289
#	82298
#	86366
#	106183
#	110837
#	125173
#	134631
#	142475
#	153494
#	163658
#	172099
#	186475
#	198413
#	211720
#
# Disc length: 3045 seconds
#
# Revision: 0
# Processed by: cddbd v1.5.2PL0 Copyright (c) Steve Scherf et al.
# Submitted via: EZCDAudioConverter 3.0.8.1
#
DISCID=110be312
DTITLE=FERNANDO TORRADO - SANDOMBE CANDAMBA
DYEAR=2012
DGENRE=
TTITLE0=GUERRERO
TTITLE1=A MI MANIÑA
TTITLE2=SEMILLAS DEL SUEÑO
TTITLE3=IRENE
TTITLE4=ORACAO AO TEMPO
TTITLE5=HABERSE
TTITLE6=COMO QUIEN YA NO MIENTE MAS
TTITLE7=O QUE SERA
TTITLE8=MARIELA TE QUIERO
TTITLE9=REPIQUE
TTITLE10=ARRASTAO
TTITLE11=ES POR NO SABER
TTITLE12=PONTA AREIA
TTITLE13=CANTARE
TTITLE14=CANDOMBE PARA JORGE
TTITLE15=TA FATANDO CALOR
TTITLE16=ROMANCE DEL 25 DE AGOSTO
TTITLE17=TE LLEVO EN AQUEL ABRAZO
EXTD=
EXTT0=
EXTT1=
EXTT2=
EXTT3=
EXTT4=
EXTT5=
EXTT6=
EXTT7=
EXTT8=
EXTT9=
EXTT10=
EXTT11=
EXTT12=
EXTT13=
EXTT14=
EXTT15=
EXTT16=
EXTT17=
PLAYORDER=
